<?xml version="1.0" encoding="utf-8"?>
<!-- Generator: Adobe Illustrator 27.1.1, SVG Export Plug-In . SVG Version: 6.00 Build 0)  -->
<svg version="1.1" id="Слой_1" xmlns="http://www.w3.org/2000/svg" xmlns:xlink="http://www.w3.org/1999/xlink" x="0px" y="0px"
	 viewBox="0 0 22.08 22.08" style="enable-background:new 0 0 22.08 22.08;" xml:space="preserve">
<style type="text/css">
	.st0{fill:none;stroke:#A6A6A6;stroke-width:1.5;stroke-linejoin:round;}
	.st1{fill:none;stroke:#A6A6A6;stroke-width:1.5;stroke-linecap:round;stroke-linejoin:round;}
</style>
<g>
	<path class="st0" d="M11.04,1.2c2.06,0,3.84,1.55,3.84,3.59v0.16l0.23-0.12l0,0c1.8-0.93,4.14-0.35,5.18,1.37
		c1.03,1.7,0.41,3.82-1.31,4.83l-0.17,0.09l-0.14,0.07l0.13,0.08c1.81,1.03,2.41,3.28,1.25,4.99c-1.12,1.64-3.42,2.13-5.16,1.17
		c-0.09,1.96-1.83,3.43-3.83,3.43c-2.06,0-3.84-1.55-3.84-3.59v-0.16l-0.23,0.12l0,0c-1.8,0.93-4.12,0.36-5.18-1.37
		c-1.09-1.78-0.37-3.98,1.46-4.93l0.14-0.07L3.27,10.8l0,0C1.48,9.76,0.89,7.51,2.05,5.81c1.12-1.64,3.4-2.13,5.16-1.18
		C7.31,2.67,9.04,1.2,11.04,1.2z"/>
	<circle class="st1" cx="11.04" cy="10.95" r="3"/>
</g>
</svg>
